<svg version="1.1" id="Layer_1" xmlns="http://www.w3.org/2000/svg" xmlns:xlink="http://www.w3.org/1999/xlink" x="0px" y="0px"
	 width="100%" viewBox="0 0 1280 376" enable-background="new 0 0 1280 376" xml:space="preserve">
<path fill="#FEFEFE" opacity="1.000000" stroke="none" 
	d="
M820.000000,377.000000 
	C546.666687,377.000000 273.833405,377.000000 1.000073,377.000000 
	C1.000049,251.666718 1.000049,126.333427 1.000024,1.000107 
	C427.666595,1.000071 854.333191,1.000071 1280.999756,1.000036 
	C1280.999878,126.333221 1280.999878,251.666443 1281.000000,376.999817 
	C1127.500000,377.000000 974.000000,377.000000 820.000000,377.000000 
M1115.460205,139.295517 
	C1115.113403,139.791733 1114.766602,140.287949 1113.908325,141.033798 
	C1113.485352,141.644760 1113.062500,142.255737 1112.054077,143.127594 
	C1099.127441,157.271667 1086.200928,171.415741 1073.274292,185.559814 
	C1072.739380,185.290329 1072.204590,185.020828 1071.669678,184.751343 
	C1071.669678,154.386642 1071.669678,124.021950 1071.669678,93.507271 
	C1075.288208,93.507271 1079.132568,93.698814 1082.939575,93.405441 
	C1084.308472,93.299942 1085.587646,92.027367 1086.907715,91.287415 
	C1085.678589,90.498322 1084.541504,89.350288 1083.198364,89.006287 
	C1081.297119,88.519325 1079.244873,88.509933 1077.255615,88.496277 
	C1057.269531,88.358986 1037.283081,88.206406 1017.296753,88.192345 
	C1011.976624,88.188606 1006.643311,88.504860 1001.345398,88.992966 
	C1000.091736,89.108475 998.956543,90.510643 997.766846,91.320923 
	C999.055664,92.044853 1000.304260,93.290207 1001.640930,93.393082 
	C1005.366150,93.679794 1009.127808,93.492706 1013.160278,93.492706 
	C1013.160278,95.971535 1013.142090,97.784363 1013.163025,99.596733 
	C1013.493958,128.242294 1013.933167,156.887054 1014.137207,185.533493 
	C1014.366211,217.677261 1014.326050,249.822952 1014.559814,281.966675 
	C1014.592102,286.411041 1013.019409,288.259247 1008.578674,288.178131 
	C1005.042419,288.113525 1001.497009,288.556793 996.787842,288.846436 
	C999.965454,293.451324 1003.782898,292.712280 1006.848877,292.738251 
	C1030.335327,292.937073 1053.823975,292.885559 1077.312012,292.879791 
	C1079.301147,292.879303 1081.365479,292.929626 1083.255127,292.428741 
	C1084.728516,292.038177 1085.984497,290.827454 1087.337158,289.981262 
	C1085.902344,289.127625 1084.549927,287.777252 1083.015625,287.522186 
	C1079.666870,286.965485 1076.225586,286.965820 1072.682007,286.729187 
	C1071.585571,256.054932 1069.857544,225.851730 1071.670166,195.654007 
	C1072.484985,195.461044 1073.299805,195.268082 1074.114624,195.075134 
	C1090.013306,225.344055 1105.912109,255.612976 1122.050903,286.338745 
	C1117.462891,286.984680 1114.312134,287.291382 1111.236694,287.949829 
	C1110.382568,288.132721 1109.751709,289.358673 1109.018433,290.106079 
	C1109.789062,290.804718 1110.460693,291.897278 1111.350708,292.120880 
	C1113.265259,292.601898 1115.289429,292.788879 1117.273804,292.827545 
	C1130.756958,293.090332 1144.240723,293.376068 1157.725708,293.473938 
	C1172.676514,293.582458 1187.628540,293.498749 1202.482666,293.498749 
	C1204.023315,288.094757 1201.391846,286.577698 1197.129395,286.950012 
	C1189.775635,287.592407 1185.496582,285.065948 1181.951416,277.853271 
	C1161.723022,236.698151 1140.826660,195.870636 1120.032349,154.995361 
	C1118.240356,151.472855 1117.781250,148.569443 1120.705688,145.561203 
	C1120.705688,145.561203 1120.801514,145.514938 1121.302002,145.154388 
	C1122.055054,144.176376 1122.808105,143.198380 1124.114502,141.916946 
	C1135.649902,128.782669 1147.578491,115.965797 1158.549438,102.375870 
	C1163.777344,95.899933 1169.320923,92.634705 1177.497314,93.836113 
	C1178.619141,94.000946 1179.928955,93.965912 1180.938843,93.529976 
	C1182.117065,93.021362 1183.061157,91.970726 1184.106934,91.155319 
	C1183.078979,90.378731 1182.059204,88.938309 1181.021973,88.925507 
	C1166.380859,88.744682 1151.736938,88.700943 1137.095581,88.836678 
	C1135.974731,88.847069 1134.868530,90.457710 1133.755615,91.324577 
	C1134.875488,92.032280 1135.963379,93.283974 1137.120850,93.352089 
	C1141.770508,93.625710 1146.442139,93.510017 1151.104736,93.589928 
	C1152.457153,93.613121 1153.806641,93.808670 1155.674683,93.969826 
	C1142.123779,109.373085 1129.070557,124.210785 1115.460205,139.295517 
M313.931274,249.276535 
	C314.937531,242.213486 316.776398,235.155258 316.817200,228.086655 
	C317.120148,175.600739 316.925964,123.112007 317.213379,70.625938 
	C317.294464,55.812710 311.200989,53.295769 298.621979,60.660973 
	C292.189484,64.427307 285.692078,68.756149 278.637939,70.665222 
	C254.341522,77.240631 230.494446,76.579132 208.655151,62.181427 
	C200.983841,57.124069 194.332321,55.373859 185.592499,60.983868 
	C155.087296,80.564873 124.240829,79.708595 93.638992,60.601868 
	C91.004936,58.957253 88.036034,57.611790 85.039169,56.839504 
	C80.222847,55.598339 76.546722,58.354015 75.951637,63.313095 
	C75.515808,66.945114 75.178474,70.614609 75.169716,74.268295 
	C75.068268,116.595604 74.960472,158.923233 75.040047,201.250427 
	C75.061333,212.573410 75.462967,223.909912 76.129997,235.214249 
	C77.260986,254.381348 87.393738,269.399445 99.588852,283.112915 
	C124.687187,311.336182 156.033020,330.942596 189.589249,347.421661 
	C194.153549,349.663116 198.266083,349.653564 202.854034,347.460480 
	C230.025742,334.471985 255.179153,318.387421 277.877197,298.586273 
	C293.365387,285.074768 305.924927,269.297607 313.931274,249.276535 
M918.934021,263.500000 
	C918.934021,206.874817 918.934021,150.249634 918.934021,93.595383 
	C937.036865,94.836029 946.500671,100.071480 954.763977,113.920959 
	C957.983521,119.316994 960.662415,125.084503 963.096985,130.888580 
	C966.691772,139.458496 969.775757,148.241302 973.233398,156.870926 
	C974.347839,159.652542 975.846802,162.411438 980.072571,160.942719 
	C979.059692,136.750229 978.047546,112.575157 977.039185,88.490845 
	C919.210022,88.490845 861.977051,88.490845 803.484131,88.490845 
	C802.954407,112.058113 802.412781,135.325394 801.978760,158.594696 
	C801.961975,159.495193 802.979187,160.414978 803.514587,161.325775 
	C804.658569,160.550629 806.385986,160.027237 806.847595,158.957581 
	C809.080383,153.784119 811.001404,148.474487 812.980652,143.193512 
	C817.885559,130.106476 822.759827,116.998985 832.118591,106.229645 
	C839.794739,97.396446 849.803101,94.166489 861.254822,93.766808 
	C861.254822,158.429764 861.254822,222.509506 861.254822,287.000183 
	C855.011841,287.000183 849.042786,287.125000 843.081848,286.959961 
	C838.474670,286.832397 836.758606,288.672333 837.903198,293.293457 
	C873.331604,293.293457 908.559753,293.293457 944.214844,293.293457 
	C944.076233,291.254639 943.959473,289.537109 943.796631,287.142029 
	C935.276855,287.142029 927.205078,287.142029 918.934021,287.142029 
	C918.934021,279.119537 918.934021,271.809753 918.934021,263.500000 
M709.521912,280.489227 
	C709.521912,282.925262 709.521912,285.361298 709.521912,287.857971 
	C704.621826,288.140900 700.330139,288.286957 696.068237,288.723663 
	C695.251526,288.807404 694.551941,290.034637 693.798279,290.734283 
	C694.533813,291.466675 695.149536,292.495514 696.036194,292.853790 
	C697.064270,293.269165 698.330078,293.162079 699.493225,293.167786 
	C726.650146,293.301636 753.807190,293.423401 780.964233,293.519379 
	C781.562561,293.521484 782.161987,293.196899 782.708923,293.039673 
	C783.751526,288.313660 781.771912,286.717224 777.427063,286.967468 
	C773.997742,287.164948 770.547974,287.007172 767.195557,287.007172 
	C767.195557,222.158813 767.195557,157.904282 767.195557,93.518570 
	C770.964905,93.518570 774.486084,93.755363 777.951294,93.417587 
	C779.656555,93.251366 781.258057,92.021759 782.906555,91.273384 
	C781.340088,90.463440 779.788635,88.981903 778.204895,88.946518 
	C760.725830,88.555855 743.242188,88.279137 725.758850,88.208435 
	C716.604370,88.171425 707.442566,88.490601 698.297791,88.932259 
	C696.757446,89.006660 695.286682,90.523445 693.783752,91.373764 
	C695.435242,92.088028 697.043396,93.258720 698.747314,93.420357 
	C702.162170,93.744301 705.629333,93.516556 709.523315,93.516556 
	C709.523315,155.932755 709.523315,217.713135 709.521912,280.489227 
M634.499634,293.520782 
	C647.987671,293.373718 661.476929,293.284851 674.961670,292.988312 
	C676.290588,292.959045 677.591492,291.657013 678.905396,290.945740 
	C677.676453,290.080078 676.501038,288.576660 675.208496,288.467987 
	C671.287781,288.138489 667.321655,288.348755 663.244629,288.348755 
	C663.244629,223.008652 663.244629,158.326126 663.244629,93.250473 
	C667.889038,93.250473 672.216797,93.356735 676.530334,93.156883 
	C677.349854,93.118919 678.113098,91.868683 678.902283,91.177757 
	C678.136658,90.455597 677.468323,89.552719 676.573303,89.070717 
	C675.904907,88.710724 674.944275,88.851585 674.112976,88.841766 
	C654.467712,88.609604 634.822876,88.299408 615.176941,88.208687 
	C607.858459,88.174889 600.532776,88.573196 593.222839,88.992302 
	C592.042358,89.059990 590.927307,90.269638 589.782043,90.951439 
	C590.960266,91.788658 592.088684,93.249001 593.325867,93.347740 
	C597.239258,93.660065 601.193420,93.463081 605.199951,93.463081 
	C605.199951,158.736496 605.199951,223.268143 605.199951,288.184296 
	C601.402405,288.184296 597.901672,287.916687 594.474121,288.301056 
	C592.843628,288.483887 591.352478,289.908630 589.798218,290.770782 
	C591.375183,291.563629 592.936646,293.008636 594.531494,293.046326 
	C607.517334,293.353210 620.509399,293.396942 634.499634,293.520782 
M455.484711,14.920318 
	C455.375153,18.582663 455.172272,22.244940 455.169678,25.907360 
	C455.098694,126.358398 455.008270,226.809464 455.038147,327.260498 
	C455.042511,341.911285 455.603149,356.562805 456.005341,371.211304 
	C456.050995,372.874268 456.741089,374.519501 457.132385,376.172943 
	C457.735382,376.083801 458.338348,375.994659 458.941315,375.905487 
	C459.267944,369.508820 459.873108,363.112396 459.879547,356.715424 
	C459.984589,252.267700 460.043152,147.819916 460.020538,43.372162 
	C460.017944,31.387785 459.493683,19.402739 459.136932,7.420215 
	C459.092529,5.929121 458.588562,4.451712 458.297546,2.967962 
	C457.720001,2.982529 457.142456,2.997096 456.564941,3.011662 
	C456.226746,6.674016 455.888580,10.336370 455.484711,14.920318 
z"/>
<path fill="#030303" opacity="1.000000" stroke="none" 
	d="
M1120.744995,145.660049 
	C1117.781250,148.569443 1118.240356,151.472855 1120.032349,154.995361 
	C1140.826660,195.870636 1161.723022,236.698151 1181.951416,277.853271 
	C1185.496582,285.065948 1189.775635,287.592407 1197.129395,286.950012 
	C1201.391846,286.577698 1204.023315,288.094757 1202.482666,293.498749 
	C1187.628540,293.498749 1172.676514,293.582458 1157.725708,293.473938 
	C1144.240723,293.376068 1130.756958,293.090332 1117.273804,292.827545 
	C1115.289429,292.788879 1113.265259,292.601898 1111.350708,292.120880 
	C1110.460693,291.897278 1109.789062,290.804718 1109.018433,290.106079 
	C1109.751709,289.358673 1110.382568,288.132721 1111.236694,287.949829 
	C1114.312134,287.291382 1117.462891,286.984680 1122.050903,286.338745 
	C1105.912109,255.612976 1090.013306,225.344055 1074.114624,195.075134 
	C1073.299805,195.268082 1072.484985,195.461044 1071.670166,195.654007 
	C1069.857544,225.851730 1071.585571,256.054932 1072.682007,286.729187 
	C1076.225586,286.965820 1079.666870,286.965485 1083.015625,287.522186 
	C1084.549927,287.777252 1085.902344,289.127625 1087.337158,289.981262 
	C1085.984497,290.827454 1084.728516,292.038177 1083.255127,292.428741 
	C1081.365479,292.929626 1079.301147,292.879303 1077.312012,292.879791 
	C1053.823975,292.885559 1030.335327,292.937073 1006.848877,292.738251 
	C1003.782898,292.712280 999.965454,293.451324 996.787842,288.846436 
	C1001.497009,288.556793 1005.042419,288.113525 1008.578674,288.178131 
	C1013.019409,288.259247 1014.592102,286.411041 1014.559814,281.966675 
	C1014.326050,249.822952 1014.366211,217.677261 1014.137207,185.533493 
	C1013.933167,156.887054 1013.493958,128.242294 1013.163025,99.596733 
	C1013.142090,97.784363 1013.160278,95.971535 1013.160278,93.492706 
	C1009.127808,93.492706 1005.366150,93.679794 1001.640930,93.393082 
	C1000.304260,93.290207 999.055664,92.044853 997.766846,91.320930 
	C998.956543,90.510643 1000.091736,89.108475 1001.345398,88.992966 
	C1006.643311,88.504860 1011.976624,88.188606 1017.296753,88.192345 
	C1037.283081,88.206406 1057.269531,88.358986 1077.255615,88.496277 
	C1079.244873,88.509933 1081.297119,88.519325 1083.198364,89.006287 
	C1084.541504,89.350288 1085.678589,90.498322 1086.907715,91.287415 
	C1085.587646,92.027367 1084.308472,93.299942 1082.939575,93.405441 
	C1079.132568,93.698814 1075.288208,93.507271 1071.669678,93.507271 
	C1071.669678,124.021950 1071.669678,154.386642 1071.669678,184.751343 
	C1072.204590,185.020828 1072.739380,185.290329 1073.274292,185.559814 
	C1086.200928,171.415741 1099.127441,157.271667 1112.634033,143.102066 
	C1113.853027,142.905655 1114.492188,142.734756 1115.131348,142.563843 
	C1114.894287,141.970596 1114.657104,141.377380 1114.419922,140.784149 
	C1114.766602,140.287949 1115.113403,139.791733 1115.978271,139.433929 
	C1118.951294,140.188461 1122.163452,138.784058 1123.561157,142.220367 
	C1122.808105,143.198380 1122.055054,144.176376 1120.609009,145.188675 
	C1118.135376,145.222961 1116.354736,145.222961 1114.574097,145.222961 
	C1114.589355,145.565033 1114.604614,145.907120 1114.619873,146.249191 
	C1116.661621,146.052811 1118.703247,145.856430 1120.744995,145.660049 
M1116.517822,143.408875 
	C1116.517822,143.408875 1116.587402,143.524353 1116.517822,143.408875 
z"/>
<path fill="#060606" opacity="1.000000" stroke="none" 
	d="
M313.798035,249.649933 
	C305.924927,269.297607 293.365387,285.074768 277.877197,298.586273 
	C255.179153,318.387421 230.025742,334.471985 202.854034,347.460480 
	C198.266083,349.653564 194.153549,349.663116 189.589249,347.421661 
	C156.033020,330.942596 124.687187,311.336182 99.588852,283.112915 
	C87.393738,269.399445 77.260986,254.381348 76.129997,235.214249 
	C75.462967,223.909912 75.061333,212.573410 75.040047,201.250427 
	C74.960472,158.923233 75.068268,116.595604 75.169716,74.268295 
	C75.178474,70.614609 75.515808,66.945114 75.951637,63.313095 
	C76.546722,58.354015 80.222847,55.598339 85.039169,56.839504 
	C88.036034,57.611790 91.004936,58.957253 93.638992,60.601868 
	C124.240829,79.708595 155.087296,80.564873 185.592499,60.983868 
	C194.332321,55.373859 200.983841,57.124069 208.655151,62.181427 
	C230.494446,76.579132 254.341522,77.240631 278.637939,70.665222 
	C285.692078,68.756149 292.189484,64.427307 298.621979,60.660973 
	C311.200989,53.295769 317.294464,55.812710 317.213379,70.625938 
	C316.925964,123.112007 317.120148,175.600739 316.817200,228.086655 
	C316.776398,235.155258 314.937531,242.213486 313.798035,249.649933 
M118.120872,90.399719 
	C109.995537,87.863861 101.870193,85.327995 93.677498,82.771111 
	C93.646042,83.424202 93.553497,84.411316 93.557434,85.398048 
	C93.760376,136.360931 93.955414,187.323868 94.245262,238.286270 
	C94.255997,240.174088 94.973671,242.155411 95.745247,243.926117 
	C102.586685,259.626740 113.276314,272.470886 125.742256,283.966980 
	C146.214996,302.846924 169.962112,316.879852 194.304489,329.984741 
	C195.596619,330.680359 198.159943,330.149017 199.586395,329.286957 
	C215.510864,319.662903 231.798767,310.539124 247.058945,299.941681 
	C267.747314,285.574615 285.753052,268.358002 296.321533,244.776154 
	C297.366119,242.445374 298.055084,239.738358 298.077515,237.198654 
	C298.460846,193.732910 298.721191,150.266068 298.986938,106.799339 
	C299.037140,98.592461 298.994141,90.385010 298.994141,81.610649 
	C284.691681,89.407730 270.040863,92.528625 254.771606,92.986488 
	C235.131409,93.575432 216.994324,88.285439 200.122009,78.445908 
	C197.421295,76.870911 195.129684,76.503746 192.318802,78.253830 
	C169.571808,92.416466 144.927399,95.604134 118.120872,90.399719 
z"/>
<path fill="#030303" opacity="1.000000" stroke="none" 
	d="
M918.934021,264.000000 
	C918.934021,271.809753 918.934021,279.119537 918.934021,287.142029 
	C927.205078,287.142029 935.276855,287.142029 943.796631,287.142029 
	C943.959473,289.537109 944.076233,291.254639 944.214844,293.293457 
	C908.559753,293.293457 873.331604,293.293457 837.903198,293.293457 
	C836.758606,288.672333 838.474670,286.832397 843.081848,286.959961 
	C849.042786,287.125000 855.011841,287.000183 861.254822,287.000183 
	C861.254822,222.509506 861.254822,158.429764 861.254822,93.766808 
	C849.803101,94.166489 839.794739,97.396446 832.118591,106.229645 
	C822.759827,116.998985 817.885559,130.106476 812.980652,143.193512 
	C811.001404,148.474487 809.080383,153.784119 806.847595,158.957581 
	C806.385986,160.027237 804.658569,160.550629 803.514587,161.325775 
	C802.979187,160.414978 801.961975,159.495193 801.978760,158.594696 
	C802.412781,135.325394 802.954407,112.058113 803.484131,88.490845 
	C861.977051,88.490845 919.210022,88.490845 977.039185,88.490845 
	C978.047546,112.575157 979.059692,136.750229 980.072571,160.942719 
	C975.846802,162.411438 974.347839,159.652542 973.233398,156.870926 
	C969.775757,148.241302 966.691772,139.458496 963.096985,130.888580 
	C960.662415,125.084503 957.983521,119.316994 954.763977,113.920959 
	C946.500671,100.071480 937.036865,94.836029 918.934021,93.595383 
	C918.934021,150.249634 918.934021,206.874817 918.934021,264.000000 
z"/>
<path fill="#020202" opacity="1.000000" stroke="none" 
	d="
M709.522583,279.991394 
	C709.523315,217.713135 709.523315,155.932755 709.523315,93.516556 
	C705.629333,93.516556 702.162170,93.744301 698.747314,93.420357 
	C697.043396,93.258720 695.435242,92.088028 693.783752,91.373779 
	C695.286682,90.523445 696.757446,89.006660 698.297791,88.932259 
	C707.442566,88.490601 716.604370,88.171425 725.758850,88.208435 
	C743.242188,88.279137 760.725830,88.555855 778.204895,88.946518 
	C779.788635,88.981903 781.340088,90.463440 782.906555,91.273369 
	C781.258057,92.021759 779.656555,93.251366 777.951294,93.417587 
	C774.486084,93.755363 770.964905,93.518570 767.195557,93.518570 
	C767.195557,157.904282 767.195557,222.158813 767.195557,287.007172 
	C770.547974,287.007172 773.997742,287.164948 777.427063,286.967468 
	C781.771912,286.717224 783.751526,288.313660 782.708923,293.039673 
	C782.161987,293.196899 781.562561,293.521484 780.964233,293.519379 
	C753.807190,293.423401 726.650146,293.301636 699.493225,293.167786 
	C698.330078,293.162079 697.064270,293.269165 696.036194,292.853790 
	C695.149536,292.495514 694.533813,291.466675 693.798279,290.734283 
	C694.551941,290.034637 695.251526,288.807404 696.068237,288.723663 
	C700.330139,288.286957 704.621826,288.140900 709.521912,287.857971 
	C709.521912,285.361298 709.521912,282.925262 709.522583,279.991394 
z"/>
<path fill="#020202" opacity="1.000000" stroke="none" 
	d="
M633.999634,293.520752 
	C620.509399,293.396942 607.517334,293.353210 594.531494,293.046326 
	C592.936646,293.008636 591.375183,291.563629 589.798218,290.770782 
	C591.352478,289.908630 592.843628,288.483887 594.474121,288.301056 
	C597.901672,287.916687 601.402405,288.184296 605.199951,288.184296 
	C605.199951,223.268143 605.199951,158.736496 605.199951,93.463081 
	C601.193420,93.463081 597.239258,93.660065 593.325867,93.347740 
	C592.088684,93.249001 590.960266,91.788658 589.782043,90.951431 
	C590.927307,90.269638 592.042358,89.059990 593.222839,88.992302 
	C600.532776,88.573196 607.858459,88.174889 615.176941,88.208687 
	C634.822876,88.299408 654.467712,88.609604 674.112976,88.841766 
	C674.944275,88.851585 675.904907,88.710724 676.573303,89.070717 
	C677.468323,89.552719 678.136658,90.455597 678.902283,91.177765 
	C678.113098,91.868683 677.349854,93.118919 676.530334,93.156883 
	C672.216797,93.356735 667.889038,93.250473 663.244629,93.250473 
	C663.244629,158.326126 663.244629,223.008652 663.244629,288.348755 
	C667.321655,288.348755 671.287781,288.138489 675.208496,288.467987 
	C676.501038,288.576660 677.676453,290.080078 678.905396,290.945740 
	C677.591492,291.657013 676.290588,292.959045 674.961670,292.988312 
	C661.476929,293.284851 647.987671,293.373718 633.999634,293.520752 
z"/>
<path fill="#040404" opacity="1.000000" stroke="none" 
	d="
M455.517578,14.459521 
	C455.888580,10.336370 456.226746,6.674016 456.564941,3.011662 
	C457.142456,2.997096 457.720001,2.982529 458.297546,2.967962 
	C458.588562,4.451712 459.092529,5.929121 459.136932,7.420215 
	C459.493683,19.402739 460.017944,31.387785 460.020538,43.372162 
	C460.043152,147.819916 459.984589,252.267700 459.879547,356.715424 
	C459.873108,363.112396 459.267944,369.508820 458.941315,375.905487 
	C458.338348,375.994659 457.735382,376.083801 457.132385,376.172943 
	C456.741089,374.519501 456.050995,372.874268 456.005341,371.211304 
	C455.603149,356.562805 455.042511,341.911285 455.038147,327.260498 
	C455.008270,226.809464 455.098694,126.358398 455.169678,25.907360 
	C455.172272,22.244940 455.375153,18.582663 455.517578,14.459521 
z"/>
<path fill="#111111" opacity="1.000000" stroke="none" 
	d="
M1123.837891,142.068665 
	C1122.163452,138.784058 1118.951294,140.188461 1116.256836,139.310425 
	C1129.070557,124.210785 1142.123779,109.373085 1155.674683,93.969826 
	C1153.806641,93.808670 1152.457153,93.613121 1151.104736,93.589928 
	C1146.442139,93.510017 1141.770508,93.625710 1137.120850,93.352089 
	C1135.963379,93.283974 1134.875488,92.032280 1133.755615,91.324554 
	C1134.868530,90.457710 1135.974731,88.847069 1137.095581,88.836678 
	C1151.736938,88.700943 1166.380859,88.744682 1181.021973,88.925507 
	C1182.059204,88.938309 1183.078979,90.378731 1184.106934,91.155304 
	C1183.061157,91.970726 1182.117065,93.021362 1180.938843,93.529976 
	C1179.928955,93.965912 1178.619141,94.000946 1177.497314,93.836113 
	C1169.320923,92.634705 1163.777344,95.899933 1158.549438,102.375870 
	C1147.578491,115.965797 1135.649902,128.782669 1123.837891,142.068665 
z"/>
<path fill="#111111" opacity="1.000000" stroke="none" 
	d="
M1120.725342,145.610626 
	C1118.703247,145.856430 1116.661621,146.052811 1114.619873,146.249191 
	C1114.604614,145.907120 1114.589355,145.565033 1114.574097,145.222961 
	C1116.354736,145.222961 1118.135376,145.222961 1120.358765,145.368958 
	C1120.801514,145.514938 1120.705688,145.561203 1120.725342,145.610626 
z"/>
<path fill="#111111" opacity="1.000000" stroke="none" 
	d="
M1114.164062,140.908966 
	C1114.657104,141.377380 1114.894287,141.970596 1115.131348,142.563843 
	C1114.492188,142.734756 1113.853027,142.905655 1112.926758,142.971619 
	C1113.062500,142.255737 1113.485352,141.644760 1114.164062,140.908966 
z"/>
<path fill="#111111" opacity="1.000000" stroke="none" 
	d="
M1116.552612,143.466614 
	C1116.587402,143.524353 1116.517822,143.408875 1116.552612,143.466614 
z"/>
<path fill="#FDFDFD" opacity="1.000000" stroke="none" 
	d="
M118.524506,90.544220 
	C144.927399,95.604134 169.571808,92.416466 192.318802,78.253830 
	C195.129684,76.503746 197.421295,76.870911 200.122009,78.445908 
	C216.994324,88.285439 235.131409,93.575432 254.771606,92.986488 
	C270.040863,92.528625 284.691681,89.407730 298.994141,81.610649 
	C298.994141,90.385010 299.037140,98.592461 298.986938,106.799339 
	C298.721191,150.266068 298.460846,193.732910 298.077515,237.198654 
	C298.055084,239.738358 297.366119,242.445374 296.321533,244.776154 
	C285.753052,268.358002 267.747314,285.574615 247.058945,299.941681 
	C231.798767,310.539124 215.510864,319.662903 199.586395,329.286957 
	C198.159943,330.149017 195.596619,330.680359 194.304489,329.984741 
	C169.962112,316.879852 146.214996,302.846924 125.742256,283.966980 
	C113.276314,272.470886 102.586685,259.626740 95.745247,243.926117 
	C94.973671,242.155411 94.255997,240.174088 94.245262,238.286270 
	C93.955414,187.323868 93.760376,136.360931 93.557434,85.398048 
	C93.553497,84.411316 93.646042,83.424202 93.677498,82.771111 
	C101.870193,85.327995 109.995537,87.863861 118.524506,90.544220 
M245.147202,197.653229 
	C251.543350,190.881531 257.796661,183.966293 264.395905,177.398682 
	C267.696991,174.113403 267.152191,171.022980 264.523773,168.284897 
	C262.687531,166.372055 260.039185,164.599869 257.496399,164.115891 
	C247.054184,162.128387 236.536896,160.479263 225.995468,159.101654 
	C222.620605,158.660629 220.773987,157.367874 219.267395,154.377502 
	C214.262939,144.444382 209.374100,134.413727 203.658493,124.890053 
	C198.671555,116.580559 193.144669,116.878853 188.455292,125.284500 
	C183.113220,134.860016 178.053131,144.602554 173.196884,154.433716 
	C171.664383,157.536163 169.722076,158.639771 166.419434,159.089798 
	C155.884140,160.525330 145.335037,162.025467 134.922729,164.146088 
	C126.397133,165.882462 124.223518,172.314468 129.863205,178.620270 
	C137.516464,187.177475 145.660629,195.294785 153.356232,203.815704 
	C154.630951,205.227142 155.456360,207.845337 155.186829,209.718430 
	C153.625076,220.572281 152.096970,231.466904 149.656662,242.141785 
	C148.594818,246.786697 150.659531,248.759979 153.396637,251.301239 
	C156.391525,254.081833 159.385986,253.601013 162.569199,252.004990 
	C172.372635,247.089645 182.222092,242.261414 191.934372,237.171707 
	C194.938721,235.597275 197.296463,235.327972 200.476501,237.040741 
	C210.118607,242.234009 219.890839,247.217651 229.820984,251.834244 
	C237.934418,255.606216 242.898392,252.086838 242.111618,243.106461 
	C241.372986,234.675720 240.657135,226.104980 238.502411,217.974533 
	C236.278580,209.583359 237.542648,203.200150 245.147202,197.653229 
z"/>
<path fill="#050505" opacity="1.000000" stroke="none" 
	d="
M244.879456,197.887161 
	C237.542648,203.200150 236.278580,209.583359 238.502411,217.974533 
	C240.657135,226.104980 241.372986,234.675720 242.111618,243.106461 
	C242.898392,252.086838 237.934418,255.606216 229.820984,251.834244 
	C219.890839,247.217651 210.118607,242.234009 200.476501,237.040741 
	C197.296463,235.327972 194.938721,235.597275 191.934372,237.171707 
	C182.222092,242.261414 172.372635,247.089645 162.569199,252.004990 
	C159.385986,253.601013 156.391525,254.081833 153.396637,251.301239 
	C150.659531,248.759979 148.594818,246.786697 149.656662,242.141785 
	C152.096970,231.466904 153.625076,220.572281 155.186829,209.718430 
	C155.456360,207.845337 154.630951,205.227142 153.356232,203.815704 
	C145.660629,195.294785 137.516464,187.177475 129.863205,178.620270 
	C124.223518,172.314468 126.397133,165.882462 134.922729,164.146088 
	C145.335037,162.025467 155.884140,160.525330 166.419434,159.089798 
	C169.722076,158.639771 171.664383,157.536163 173.196884,154.433716 
	C178.053131,144.602554 183.113220,134.860016 188.455292,125.284500 
	C193.144669,116.878853 198.671555,116.580559 203.658493,124.890053 
	C209.374100,134.413727 214.262939,144.444382 219.267395,154.377502 
	C220.773987,157.367874 222.620605,158.660629 225.995468,159.101654 
	C236.536896,160.479263 247.054184,162.128387 257.496399,164.115891 
	C260.039185,164.599869 262.687531,166.372055 264.523773,168.284897 
	C267.152191,171.022980 267.696991,174.113403 264.395905,177.398682 
	C257.796661,183.966293 251.543350,190.881531 244.879456,197.887161 
M208.778763,171.812943 
	C204.881500,164.970230 200.984238,158.127518 196.595551,150.421997 
	C194.894730,152.876999 193.655853,154.359619 192.756348,156.025482 
	C190.710312,159.814651 188.793304,163.675308 186.893265,167.541031 
	C184.432053,172.548508 180.550644,175.485184 174.949066,176.149658 
	C170.659409,176.658524 166.371658,177.217880 162.111832,177.927475 
	C160.311707,178.227325 158.585419,178.970398 156.053741,179.749557 
	C157.951538,182.014236 159.126877,183.571625 160.460510,184.979034 
	C164.345444,189.078842 168.577499,192.892258 172.084030,197.288132 
	C173.586975,199.172287 174.418762,202.292480 174.191544,204.723572 
	C173.532852,211.770493 172.182968,218.752792 170.956604,226.720123 
	C173.437500,225.855377 175.126389,225.397293 176.704437,224.691422 
	C180.939774,222.796951 185.234253,220.993042 189.306168,218.785889 
	C193.889359,216.301605 198.127762,216.074875 202.871719,218.563309 
	C208.544006,221.538696 214.527588,223.920578 221.484909,227.059723 
	C220.729889,221.744812 220.612228,217.414429 219.442871,213.389572 
	C216.723526,204.029694 218.830231,196.574615 226.483307,190.384293 
	C230.259842,187.329590 233.424591,183.518539 237.484253,179.426727 
	C234.055756,178.778381 231.781631,178.477234 229.576904,177.907440 
	C222.757950,176.145126 215.965424,174.280487 208.778763,171.812943 
z"/>
<path fill="#FAFAFA" opacity="1.000000" stroke="none" 
	d="
M208.970703,172.134247 
	C215.965424,174.280487 222.757950,176.145126 229.576904,177.907440 
	C231.781631,178.477234 234.055756,178.778381 237.484253,179.426727 
	C233.424591,183.518539 230.259842,187.329590 226.483307,190.384293 
	C218.830231,196.574615 216.723526,204.029694 219.442871,213.389572 
	C220.612228,217.414429 220.729889,221.744812 221.484909,227.059723 
	C214.527588,223.920578 208.544006,221.538696 202.871719,218.563309 
	C198.127762,216.074875 193.889359,216.301605 189.306168,218.785889 
	C185.234253,220.993042 180.939774,222.796951 176.704437,224.691422 
	C175.126389,225.397293 173.437500,225.855377 170.956604,226.720123 
	C172.182968,218.752792 173.532852,211.770493 174.191544,204.723572 
	C174.418762,202.292480 173.586975,199.172287 172.084030,197.288132 
	C168.577499,192.892258 164.345444,189.078842 160.460510,184.979034 
	C159.126877,183.571625 157.951538,182.014236 156.053741,179.749557 
	C158.585419,178.970398 160.311707,178.227325 162.111832,177.927475 
	C166.371658,177.217880 170.659409,176.658524 174.949066,176.149658 
	C180.550644,175.485184 184.432053,172.548508 186.893265,167.541031 
	C188.793304,163.675308 190.710312,159.814651 192.756348,156.025482 
	C193.655853,154.359619 194.894730,152.876999 196.595551,150.421997 
	C200.984238,158.127518 204.881500,164.970230 208.970703,172.134247 
z"/>
</svg>